<svg width="1200" height="600" viewBox="0 0 1200 600" fill="none" xmlns="http://www.w3.org/2000/svg">
<rect width="1200" height="600" fill="#111111"/>
<path d="M219.555 138.703C247.693 138.703 268.528 144.733 282.061 156.792C295.728 168.717 302.562 185.868 302.562 208.244C302.562 222.849 299.212 235.645 292.512 246.632C285.813 257.485 276.099 265.926 263.37 271.956C250.775 277.985 235.567 281 217.746 281C215.603 281 212.722 280.933 209.104 280.799C205.62 280.665 201.936 280.598 198.05 280.598C194.164 280.464 190.68 280.397 187.599 280.397C180.899 280.397 174.334 280.464 167.902 280.598C161.605 280.598 156.513 280.732 152.628 281V276.98C156.781 276.712 159.863 276.176 161.873 275.372C163.883 274.569 165.223 272.961 165.892 270.549C166.562 268.137 166.897 264.519 166.897 259.696V160.008C166.897 155.05 166.562 151.432 165.892 149.155C165.223 146.743 163.816 145.135 161.672 144.331C159.662 143.393 156.647 142.857 152.628 142.723V138.703C156.513 138.837 161.605 139.038 167.902 139.306C174.334 139.44 180.765 139.44 187.197 139.306C192.154 139.172 197.715 139.038 203.878 138.904C210.176 138.77 215.402 138.703 219.555 138.703ZM222.57 142.321C216.406 142.321 212.387 143.46 210.511 145.738C208.635 148.016 207.697 152.638 207.697 159.606V260.098C207.697 267.065 208.635 271.688 210.511 273.966C212.521 276.243 216.607 277.382 222.771 277.382C231.882 277.382 239.185 274.769 244.678 269.544C250.172 264.184 254.124 256.413 256.536 246.23C259.082 236.047 260.355 223.653 260.355 209.048C260.355 194.041 259.015 181.647 256.335 171.866C253.789 161.951 249.703 154.581 244.075 149.758C238.582 144.8 231.413 142.321 222.57 142.321ZM367.79 173.876C379.581 173.876 388.827 177.359 395.526 184.327C402.359 191.16 405.776 202.683 405.776 218.896H342.868L342.466 215.077H376.433C376.567 208.512 376.299 202.482 375.629 196.989C374.959 191.361 373.887 186.873 372.413 183.523C370.939 180.173 368.929 178.498 366.383 178.498C362.766 178.498 359.818 181.379 357.54 187.141C355.262 192.768 353.788 202.482 353.118 216.283L353.922 217.891C353.788 219.231 353.721 220.571 353.721 221.911C353.721 223.251 353.721 224.658 353.721 226.131C353.721 235.511 354.86 242.813 357.138 248.039C359.55 253.264 362.498 256.882 365.981 258.892C369.599 260.902 373.217 261.907 376.834 261.907C378.71 261.907 380.921 261.639 383.467 261.103C386.147 260.567 389.028 259.361 392.109 257.485C395.191 255.475 398.206 252.46 401.154 248.441L404.57 249.647C402.962 255.006 400.35 260.366 396.732 265.725C393.248 270.951 388.693 275.305 383.065 278.789C377.437 282.139 370.604 283.814 362.565 283.814C353.989 283.814 346.151 282.072 339.05 278.588C332.082 275.104 326.522 269.343 322.368 261.304C318.214 253.264 316.137 242.478 316.137 228.945C316.137 216.082 318.415 205.631 322.971 197.592C327.526 189.418 333.69 183.456 341.461 179.704C349.367 175.818 358.143 173.876 367.79 173.876ZM457.415 173.876C463.31 173.876 468.469 174.546 472.891 175.885C477.446 177.091 480.729 178.23 482.739 179.302C487.428 182.116 490.309 180.374 491.381 174.077H495.401C495.133 177.962 494.932 182.719 494.798 188.346C494.664 193.84 494.597 201.142 494.597 210.254H490.577C490.041 205.296 488.835 200.405 486.96 195.582C485.218 190.758 482.605 186.739 479.121 183.523C475.771 180.307 471.35 178.699 465.856 178.699C462.506 178.699 459.693 179.704 457.415 181.714C455.137 183.724 453.998 186.471 453.998 189.954C453.998 193.974 455.204 197.592 457.616 200.807C460.028 203.889 463.109 206.904 466.861 209.852C470.613 212.665 474.365 215.68 478.116 218.896C482.27 222.246 485.955 225.528 489.17 228.744C492.386 231.96 494.932 235.511 496.808 239.396C498.818 243.148 499.822 247.637 499.822 252.862C499.822 258.892 497.947 264.251 494.195 268.941C490.577 273.631 485.687 277.315 479.523 279.995C473.494 282.541 466.727 283.814 459.224 283.814C454.534 283.814 450.447 283.278 446.964 282.206C443.48 281.268 440.666 280.129 438.522 278.789C436.379 277.717 434.503 276.913 432.895 276.377C431.421 275.707 429.947 275.372 428.473 275.372C427.133 275.372 425.994 276.109 425.056 277.583C424.119 278.923 423.382 280.531 422.846 282.407H418.826C419.094 278.119 419.295 272.894 419.429 266.73C419.563 260.567 419.63 252.393 419.63 242.21H423.65C424.454 249.312 425.994 255.609 428.272 261.103C430.684 266.596 433.699 270.951 437.317 274.167C441.068 277.248 445.356 278.789 450.179 278.789C452.323 278.789 454.266 278.387 456.008 277.583C457.75 276.779 459.157 275.573 460.229 273.966C461.301 272.358 461.837 270.281 461.837 267.735C461.837 261.84 460.028 256.882 456.41 252.862C452.926 248.843 448.505 244.421 443.145 239.597C439.125 235.846 435.307 232.228 431.689 228.744C428.205 225.126 425.324 221.241 423.047 217.087C420.769 212.799 419.63 208.043 419.63 202.817C419.63 196.788 421.372 191.629 424.855 187.342C428.473 183.054 433.163 179.771 438.924 177.493C444.686 175.081 450.849 173.876 457.415 173.876ZM587.387 173.876C593.551 173.876 598.374 174.68 601.858 176.287C605.476 177.761 608.222 179.637 610.098 181.915C612.108 184.327 613.582 187.542 614.52 191.562C615.458 195.582 615.927 201.008 615.927 207.842V262.308C615.927 267.936 616.597 271.755 617.937 273.765C619.277 275.774 621.688 276.779 625.172 276.779V281C622.626 280.866 618.808 280.732 613.716 280.598C608.758 280.33 603.868 280.196 599.044 280.196C593.819 280.196 588.727 280.33 583.769 280.598C578.812 280.732 575.06 280.866 572.514 281V276.779C575.194 276.779 577.07 275.774 578.142 273.765C579.214 271.755 579.75 267.936 579.75 262.308V196.989C579.75 194.175 579.482 191.83 578.946 189.954C578.41 188.078 577.539 186.672 576.333 185.734C575.261 184.796 573.787 184.327 571.911 184.327C569.5 184.327 567.155 184.93 564.877 186.136C562.733 187.342 560.924 189.083 559.45 191.361C558.11 193.505 557.441 195.984 557.441 198.798V262.308C557.441 267.936 557.976 271.755 559.048 273.765C560.12 275.774 561.996 276.779 564.676 276.779V281C562.398 280.866 558.914 280.732 554.225 280.598C549.669 280.33 544.98 280.196 540.156 280.196C534.528 280.196 528.834 280.33 523.072 280.598C517.311 280.732 512.956 280.866 510.008 281V276.779C514.162 276.779 517.043 275.774 518.651 273.765C520.392 271.755 521.263 267.936 521.263 262.308V198.597C521.263 192.567 520.459 188.145 518.852 185.332C517.244 182.384 514.296 180.91 510.008 180.91V176.689C514.296 177.091 518.45 177.292 522.469 177.292C529.169 177.292 535.399 177.091 541.161 176.689C547.056 176.153 552.483 175.416 557.441 174.479V188.949C560.522 183.59 564.609 179.771 569.701 177.493C574.792 175.081 580.688 173.876 587.387 173.876ZM647.883 173.876C654.047 173.876 658.87 174.68 662.354 176.287C665.972 177.761 668.719 179.637 670.594 181.915C672.604 184.327 674.078 187.542 675.016 191.562C675.954 195.582 676.423 201.008 676.423 207.842V262.308C676.423 267.936 677.227 271.755 678.835 273.765C680.577 275.774 683.524 276.779 687.678 276.779V281C684.998 280.866 680.912 280.732 675.418 280.598C670.058 280.33 664.766 280.196 659.54 280.196C654.315 280.196 649.223 280.33 644.266 280.598C639.308 280.732 635.556 280.866 633.01 281V276.779C635.69 276.779 637.566 275.774 638.638 273.765C639.71 271.755 640.246 267.936 640.246 262.308V196.989C640.246 194.175 639.911 191.83 639.241 189.954C638.571 188.078 637.499 186.672 636.025 185.734C634.685 184.796 632.809 184.327 630.398 184.327C627.986 184.327 625.641 185.064 623.363 186.538C621.219 188.011 619.411 189.954 617.937 192.366C616.597 194.644 615.793 197.19 615.525 200.003L614.118 191.964C617.736 184.863 622.425 180.106 628.187 177.694C634.082 175.148 640.648 173.876 647.883 173.876ZM747.775 173.876C758.227 173.876 767.271 175.684 774.908 179.302C782.68 182.786 788.709 188.547 792.997 196.587C797.284 204.626 799.428 215.412 799.428 228.945C799.428 242.478 797.284 253.264 792.997 261.304C788.709 269.343 782.68 275.104 774.908 278.588C767.271 282.072 758.227 283.814 747.775 283.814C737.458 283.814 728.414 282.072 720.643 278.588C712.871 275.104 706.842 269.343 702.554 261.304C698.266 253.264 696.123 242.478 696.123 228.945C696.123 215.412 698.266 204.626 702.554 196.587C706.842 188.547 712.871 182.786 720.643 179.302C728.414 175.684 737.458 173.876 747.775 173.876ZM747.775 177.895C743.756 177.895 740.406 181.915 737.726 189.954C735.046 197.994 733.707 210.991 733.707 228.945C733.707 246.9 735.046 259.897 737.726 267.936C740.406 275.841 743.756 279.794 747.775 279.794C751.795 279.794 755.145 275.841 757.825 267.936C760.504 259.897 761.844 246.9 761.844 228.945C761.844 210.991 760.504 197.994 757.825 189.954C755.145 181.915 751.795 177.895 747.775 177.895ZM889.303 173.876C895.466 173.876 900.29 174.68 903.773 176.287C907.391 177.761 910.138 179.637 912.014 181.915C914.024 184.327 915.497 187.542 916.435 191.562C917.373 195.582 917.842 201.008 917.842 207.842V262.308C917.842 267.936 918.646 271.755 920.254 273.765C921.996 275.774 924.944 276.779 929.097 276.779V281C926.418 280.866 922.331 280.732 916.837 280.598C911.478 280.33 906.185 280.196 900.96 280.196C895.332 280.196 889.839 280.33 884.479 280.598C879.119 280.732 875.1 280.866 872.42 281V276.779C875.904 276.779 878.315 275.774 879.655 273.765C880.995 271.755 881.665 267.936 881.665 262.308V196.989C881.665 194.175 881.33 191.83 880.66 189.954C879.99 188.078 878.918 186.672 877.445 185.734C876.105 184.796 874.229 184.327 871.817 184.327C869.405 184.327 867.06 184.93 864.783 186.136C862.639 187.342 860.83 189.083 859.356 191.361C858.016 193.505 857.346 195.984 857.346 198.798V262.308C857.346 267.936 858.016 271.755 859.356 273.765C860.83 275.774 863.242 276.779 866.591 276.779V281C864.046 280.866 860.294 280.732 855.336 280.598C850.379 280.33 845.287 280.196 840.062 280.196C834.434 280.196 828.739 280.33 822.978 280.598C817.216 280.732 812.862 280.866 809.914 281V276.779C814.068 276.779 816.948 275.774 818.556 273.765C820.298 271.755 821.169 267.936 821.169 262.308V198.597C821.169 192.567 820.365 188.145 818.757 185.332C817.149 182.384 814.202 180.91 809.914 180.91V176.689C814.202 177.091 818.355 177.292 822.375 177.292C829.074 177.292 835.305 177.091 841.066 176.689C846.962 176.153 852.389 175.416 857.346 174.479V188.949C860.562 183.59 864.85 179.771 870.209 177.493C875.703 175.081 882.067 173.876 889.303 173.876ZM1039.24 123.831V258.892C1039.24 264.921 1040.04 269.41 1041.65 272.358C1043.39 275.171 1046.34 276.578 1050.49 276.578V280.799C1046.34 280.397 1042.18 280.196 1038.03 280.196C1031.33 280.196 1025.1 280.397 1019.34 280.799C1013.58 281.201 1008.15 281.938 1003.06 283.01V147.949C1003.06 141.919 1002.26 137.497 1000.65 134.684C999.04 131.736 996.092 130.262 991.804 130.262V126.041C996.092 126.443 1000.25 126.644 1004.27 126.644C1010.96 126.644 1017.2 126.443 1022.96 126.041C1028.85 125.505 1034.28 124.769 1039.24 123.831ZM982.157 173.876C988.053 173.876 993.01 174.613 997.03 176.086C1001.05 177.426 1004.6 179.637 1007.68 182.719L1005.47 184.93C1003.73 183.456 1001.79 182.384 999.643 181.714C997.499 180.91 995.489 180.508 993.613 180.508C987.45 180.508 982.827 184.461 979.745 192.366C976.664 200.271 975.123 212.397 975.123 228.744C975.123 240.535 975.726 249.714 976.932 256.279C978.137 262.71 979.745 267.199 981.755 269.745C983.899 272.157 986.177 273.363 988.589 273.363C992.34 273.363 995.69 272.023 998.638 269.343C1001.59 266.529 1003.06 263.045 1003.06 258.892V268.74C1000.38 273.832 997.097 277.65 993.211 280.196C989.326 282.608 984.435 283.814 978.539 283.814C970.902 283.814 963.935 281.938 957.637 278.186C951.474 274.301 946.583 268.271 942.965 260.098C939.348 251.924 937.539 241.272 937.539 228.141C937.539 215.948 939.348 205.899 942.965 197.994C946.717 189.954 951.943 183.925 958.642 179.905C965.342 175.885 973.18 173.876 982.157 173.876ZM207.697 319.89C216.406 319.89 223.173 320.761 227.997 322.502C232.82 324.244 236.907 326.053 240.257 327.929C241.864 328.867 243.137 329.604 244.075 330.14C245.147 330.542 246.152 330.743 247.09 330.743C248.43 330.743 249.368 330.006 249.904 328.532C250.574 327.058 251.11 324.847 251.512 321.899H256.134C256 324.713 255.799 327.996 255.531 331.748C255.397 335.499 255.263 340.457 255.129 346.62C255.129 352.784 255.129 360.89 255.129 370.94H250.507C249.971 363.57 248.229 356.402 245.281 349.434C242.467 342.467 238.515 336.705 233.423 332.15C228.465 327.594 222.503 325.316 215.536 325.316C209.64 325.316 204.749 326.924 200.864 330.14C196.978 333.356 195.035 337.978 195.035 344.008C195.035 348.965 196.241 353.253 198.653 356.871C201.065 360.354 204.816 364.039 209.908 367.925C215.134 371.81 221.967 376.701 230.408 382.597C236.438 386.75 241.864 390.904 246.688 395.058C251.646 399.211 255.598 403.901 258.546 409.126C261.494 414.352 262.968 420.65 262.968 428.019C262.968 436.996 260.422 444.433 255.33 450.328C250.373 456.224 243.74 460.645 235.433 463.593C227.126 466.407 218.081 467.814 208.3 467.814C199.189 467.814 191.886 467.01 186.393 465.402C181.033 463.794 176.478 462.119 172.726 460.377C169.778 458.502 167.5 457.564 165.892 457.564C164.553 457.564 163.548 458.301 162.878 459.774C162.342 461.248 161.873 463.459 161.471 466.407H156.848C157.116 462.923 157.25 458.903 157.25 454.348C157.384 449.658 157.451 443.629 157.451 436.259C157.585 428.89 157.652 419.511 157.652 408.122H162.275C162.811 417.501 164.285 426.277 166.696 434.45C169.242 442.624 173.061 449.256 178.153 454.348C183.378 459.305 190.279 461.784 198.854 461.784C203.811 461.784 208.032 461.047 211.516 459.573C215.134 457.966 217.947 455.688 219.957 452.74C221.967 449.792 222.972 446.242 222.972 442.088C222.972 436.46 221.699 431.57 219.153 427.416C216.607 423.128 213.124 419.176 208.702 415.558C204.414 411.806 199.39 408.055 193.628 404.303C187.331 400.015 181.435 395.728 175.942 391.44C170.448 387.152 166.026 382.329 162.677 376.969C159.461 371.609 157.853 365.245 157.853 357.876C157.853 349.032 160.198 341.864 164.888 336.37C169.577 330.743 175.741 326.589 183.378 323.909C191.015 321.23 199.122 319.89 207.697 319.89ZM328.143 357.876C338.594 357.876 347.638 359.684 355.276 363.302C363.047 366.786 369.077 372.547 373.364 380.587C377.652 388.626 379.796 399.412 379.796 412.945C379.796 426.478 377.652 437.264 373.364 445.304C369.077 453.343 363.047 459.104 355.276 462.588C347.638 466.072 338.594 467.814 328.143 467.814C317.826 467.814 308.782 466.072 301.01 462.588C293.239 459.104 287.209 453.343 282.922 445.304C278.634 437.264 276.49 426.478 276.49 412.945C276.49 399.412 278.634 388.626 282.922 380.587C287.209 372.547 293.239 366.786 301.01 363.302C308.782 359.684 317.826 357.876 328.143 357.876ZM328.143 361.895C324.123 361.895 320.774 365.915 318.094 373.954C315.414 381.994 314.074 394.991 314.074 412.945C314.074 430.9 315.414 443.897 318.094 451.936C320.774 459.841 324.123 463.794 328.143 463.794C332.163 463.794 335.512 459.841 338.192 451.936C340.872 443.897 342.212 430.9 342.212 412.945C342.212 394.991 340.872 381.994 338.192 373.954C335.512 365.915 332.163 361.895 328.143 361.895ZM445.552 307.831C450.912 307.831 455.534 308.501 459.42 309.84C463.306 311.18 466.722 312.989 469.67 315.267C471.546 316.741 473.221 318.952 474.695 321.899C476.303 324.713 477.107 328.063 477.107 331.949C477.107 336.102 475.566 339.854 472.484 343.204C469.402 346.553 465.383 348.228 460.425 348.228C454.931 348.228 450.51 346.754 447.16 343.807C443.944 340.859 442.336 336.772 442.336 331.547C442.336 327.661 443.475 324.11 445.753 320.895C448.031 317.545 451.515 315.133 456.204 313.659C455.802 313.123 455.132 312.721 454.194 312.453C453.391 312.051 452.252 311.85 450.778 311.85C448.5 311.85 446.624 312.185 445.15 312.855C443.676 313.525 442.403 314.463 441.331 315.669C440.126 317.143 439.188 319.22 438.518 321.899C437.848 324.579 437.513 328.599 437.513 333.959V360.89H459.018V364.91H437.513V444.299C437.513 450.864 439.054 455.286 442.135 457.564C445.217 459.707 449.438 460.779 454.797 460.779V465C451.046 464.866 445.82 464.732 439.121 464.598C432.421 464.33 425.32 464.196 417.816 464.196C412.457 464.196 407.164 464.33 401.939 464.598C396.713 464.732 392.76 464.866 390.081 465V460.779C394.234 460.779 397.115 459.774 398.723 457.765C400.465 455.755 401.336 451.936 401.336 446.308V364.91H389.277V360.89H401.336C401.336 352.985 401.805 346.42 402.743 341.194C403.681 335.968 405.154 331.547 407.164 327.929C409.308 324.177 412.122 320.828 415.606 317.88C418.687 315.2 422.908 312.855 428.268 310.845C433.627 308.836 439.389 307.831 445.552 307.831ZM569.606 358.479V443.093C569.606 449.122 570.41 453.611 572.018 456.559C573.76 459.372 576.708 460.779 580.861 460.779V465C576.708 464.598 572.554 464.397 568.4 464.397C561.701 464.397 555.47 464.598 549.709 465C543.947 465.402 538.521 466.139 533.429 467.211V452.74C530.213 458.1 525.859 461.985 520.365 464.397C515.006 466.675 508.708 467.814 501.473 467.814C495.309 467.814 490.419 467.01 486.801 465.402C483.317 463.928 480.637 462.052 478.762 459.774C476.752 457.363 475.278 454.147 474.34 450.127C473.402 446.108 472.933 440.681 472.933 433.847V382.597C472.933 376.567 472.129 372.145 470.521 369.332C468.913 366.384 465.966 364.91 461.678 364.91V360.689C465.966 361.091 470.119 361.292 474.139 361.292C480.838 361.292 487.069 361.091 492.83 360.689C498.726 360.153 504.153 359.416 509.11 358.479V444.701C509.11 447.514 509.445 449.859 510.115 451.735C510.785 453.611 511.857 455.018 513.331 455.956C514.805 456.894 516.681 457.363 518.958 457.363C521.504 457.363 523.849 456.76 525.993 455.554C528.137 454.348 529.878 452.673 531.218 450.529C532.692 448.251 533.429 445.706 533.429 442.892V382.597C533.429 376.567 532.625 372.145 531.017 369.332C529.41 366.384 526.462 364.91 522.174 364.91V360.689C526.462 361.091 530.615 361.292 534.635 361.292C541.335 361.292 547.565 361.091 553.327 360.689C559.222 360.153 564.649 359.416 569.606 358.479ZM615.847 466.407C609.549 466.407 604.391 465.201 600.371 462.789C596.351 460.377 593.404 457.229 591.528 453.343C589.786 449.457 588.915 445.371 588.915 441.083C588.915 435.455 590.188 430.9 592.734 427.416C595.279 423.798 598.562 420.918 602.582 418.774C606.735 416.496 611.09 414.62 615.646 413.146C620.201 411.672 624.489 410.265 628.509 408.925C632.662 407.452 636.012 405.777 638.558 403.901C641.104 401.891 642.377 399.345 642.377 396.264V378.376C642.377 376.232 641.975 373.887 641.171 371.342C640.501 368.796 639.161 366.585 637.151 364.709C635.141 362.833 632.126 361.895 628.107 361.895C625.963 361.895 623.886 362.23 621.876 362.9C620 363.436 618.326 364.24 616.852 365.312C621.541 367.054 624.958 369.533 627.102 372.748C629.246 375.83 630.318 379.247 630.318 382.999C630.318 388.358 628.442 392.579 624.69 395.661C620.938 398.742 616.517 400.283 611.425 400.283C606.066 400.283 601.912 398.608 598.964 395.259C596.016 391.909 594.542 387.755 594.542 382.798C594.542 378.644 595.547 375.16 597.557 372.346C599.701 369.399 602.85 366.719 607.003 364.307C611.023 362.029 615.847 360.421 621.474 359.483C627.102 358.412 632.997 357.876 639.161 357.876C645.726 357.876 651.823 358.546 657.45 359.885C663.078 361.091 667.902 363.771 671.921 367.925C674.735 370.873 676.544 374.557 677.348 378.979C678.152 383.401 678.554 389.095 678.554 396.063V449.926C678.554 453.276 678.755 455.554 679.157 456.76C679.693 457.966 680.564 458.569 681.769 458.569C682.841 458.569 683.846 458.234 684.784 457.564C685.856 456.894 686.861 456.224 687.799 455.554L689.809 458.97C686.861 461.516 683.176 463.392 678.755 464.598C674.467 465.804 669.911 466.407 665.088 466.407C659.326 466.407 654.838 465.737 651.622 464.397C648.54 462.923 646.329 461.047 644.989 458.769C643.784 456.358 643.114 453.812 642.98 451.132C640.166 455.554 636.615 459.238 632.327 462.186C628.174 465 622.68 466.407 615.847 466.407ZM634.94 450.328C636.414 450.328 637.687 450.127 638.759 449.725C639.965 449.189 641.171 448.251 642.377 446.911V404.504C641.439 406.246 640.166 407.988 638.558 409.729C637.084 411.337 635.543 413.012 633.935 414.754C632.327 416.496 630.787 418.372 629.313 420.382C627.973 422.391 626.834 424.736 625.896 427.416C625.092 429.962 624.69 432.977 624.69 436.46C624.69 441.552 625.628 445.17 627.504 447.313C629.514 449.323 631.992 450.328 634.94 450.328ZM719.605 433.245C725.902 433.245 730.793 434.718 734.276 437.666C737.76 440.48 739.502 444.768 739.502 450.529C739.502 456.291 737.76 460.645 734.276 463.593C730.793 466.407 725.902 467.814 719.605 467.814C713.173 467.814 708.216 466.407 704.732 463.593C701.382 460.645 699.707 456.291 699.707 450.529C699.707 444.768 701.382 440.48 704.732 437.666C708.216 434.718 713.173 433.245 719.605 433.245Z" fill="#AAAAAA"/>
</svg>
